<?xml version="1.0" standalone="no"?><!DOCTYPE svg PUBLIC "-//W3C//DTD SVG 1.1//EN" "http://www.w3.org/Graphics/SVG/1.1/DTD/svg11.dtd"><svg t="1686893694570" class="icon" viewBox="0 0 1024 1024" version="1.1" xmlns="http://www.w3.org/2000/svg" p-id="36930" width="128" height="128" xmlns:xlink="http://www.w3.org/1999/xlink"><path d="M573.97 26.321c111.851 23.161 194.759 120.757 195.005 237.76 0 134.19-109.46 242.795-244.060 242.795h-0.369c-0.109 0-0.237 0-0.369 0-134.215 0-243.050 108.663-243.329 242.812 0.422 134.231 109.312 242.858 243.573 242.858 17.586 0 34.737-1.861 51.264-5.405 244.537-24.608 437.101-228.885 437.101-480.269s-192.442-455.782-438.821-480.556z" fill="#00A0E9" p-id="36931"></path><path d="M416.794 744.101c0 0 0 0 0 0 0 53.917 43.708 97.626 97.626 97.626 53.917 0 97.626-43.708 97.626-97.626 0 0 0 0 0 0 0 0 0 0 0 0 0-53.917-43.708-97.626-97.626-97.626-53.917 0-97.626 43.708-97.626 97.626s0 0 0 0z" fill="#FFFFFF" p-id="36932"></path><path d="M514.42 11.92c-16.841 0-33.314 1.71-49.177 5.004-246.137 25.017-438.821 230.516-438.821 483.238s192.806 458.223 438.821 483.118c-112.023-23.643-194.895-121.671-194.895-239.057 0-134.791 109.271-244.060 244.060-244.060 0.003 0 0.005 0 0.018 0h0.244c134.772-0.069 244-109.341 244-244.119 0-134.822-109.297-244.119-244.119-244.119-0.045 0-0.085 0-0.131 0z" fill="#F8B62D" p-id="36933"></path><path d="M416.794 255.98c0 0 0 0 0 0 0 53.917 43.708 97.626 97.626 97.626 53.917 0 97.626-43.708 97.626-97.626 0 0 0 0 0 0 0 0 0 0 0 0 0-53.917-43.708-97.626-97.626-97.626-53.917 0-97.626 43.708-97.626 97.626s0 0 0 0z" fill="" p-id="36934"></path></svg>