<?xml version="1.0" standalone="no"?><!DOCTYPE svg PUBLIC "-//W3C//DTD SVG 1.1//EN" "http://www.w3.org/Graphics/SVG/1.1/DTD/svg11.dtd"><svg t="1686893759528" class="icon" viewBox="0 0 1024 1024" version="1.1" xmlns="http://www.w3.org/2000/svg" p-id="37427" xmlns:xlink="http://www.w3.org/1999/xlink" width="128" height="128"><path d="M858.589855 830.14541l127.933368-127.933368c5.685927-5.685927 8.528891-11.371855 8.528891-19.900746s-2.842964-14.214819-8.528891-19.900746l-130.776332-130.776332c-11.371855-11.371855-28.429637-11.371855-39.801492 0-5.685927 5.685927-8.528891 11.371855-8.528891 19.900746 0 8.528891 2.842964 14.214819 8.528891 19.900747l82.445948 79.602984h-284.296373c-14.214819 0-28.429637 11.371855-28.429638 28.429637 0 14.214819 11.371855 28.429637 28.429638 28.429638h287.139337l-82.445948 82.445948c-11.371855 11.371855-11.371855 28.429637 0 39.801492 11.371855 11.371855 28.429637 11.371855 39.801492 0zM878.490601 304.19712h-250.180809c-14.214819 0-25.586674-11.371855-25.586673-25.586674V34.115565c0-17.057782-11.371855-28.429637-28.429638-28.429638s-28.429637 11.371855-28.429637 28.429638v272.924518c0 28.429637 22.74371 54.016311 54.016311 54.016311h278.610446c17.057782 0 28.429637-11.371855 28.429637-28.429637s-11.371855-28.429637-28.429637-28.429637zM497.533461 287.139337h-312.726011c-17.057782 0-28.429637-11.371855-28.429638-28.429637s11.371855-28.429637 28.429638-28.429638h312.726011c17.057782 0 28.429637 11.371855 28.429637 28.429638 0 14.214819-11.371855 28.429637-28.429637 28.429637zM409.401585 423.601596H184.80745c-17.057782 0-28.429637-11.371855-28.429638-28.429637s11.371855-28.429637 28.429638-28.429637h224.594135c17.057782 0 28.429637 11.371855 28.429637 28.429637s-11.371855 28.429637-28.429637 28.429637z" fill="#07C160" p-id="37428"></path><path d="M119.419284 1023.466944h778.972063c14.214819 0 28.429637-11.371855 28.429637-28.429637 0-14.214819-11.371855-28.429637-28.429637-28.429637H88.146683V56.859275h494.67569l287.139337 235.96599v125.090404c0 14.214819 11.371855 28.429637 28.429637 28.429637 14.214819 0 28.429637-11.371855 28.429637-28.429637v-127.933368c0-14.214819-5.685927-25.586674-14.214818-36.958529L625.466829 17.057782c-11.371855-11.371855-25.586674-17.057782-36.958529-17.057782H119.419284C96.675574 0 71.0889 8.528891 54.031118 25.586674S28.444444 65.388166 28.444444 88.131876v847.203193c0 22.74371 8.528891 45.48742 25.586674 62.545202 17.057782 19.900746 42.644456 28.429637 65.388166 25.586673z" fill="#07C160" p-id="37429"></path><path d="M898.391347 1023.466944c-17.057782 0-28.429637-11.371855-28.429637-28.429637v-85.288912c0-17.057782 11.371855-28.429637 28.429637-28.429637s28.429637 11.371855 28.429637 28.429637v85.288912c0 17.057782-11.371855 28.429637-28.429637 28.429637z" fill="#07C160" p-id="37430"></path></svg>